# xmcd CD database file generated by Grip 2.7
# 
# Track frame offsets:
#       150
#       7275
#       29515
# 
# Disc length: 465 seconds
# 
# Revision: 3
# Processed by: cddbd v1.4b41PL1 Copyright (c) Steve Scherf et al.
# Submitted via: Grip 2.7
# 
DISCID=2101cf03
DTITLE=Will Oldham - Little Joya
DYEAR=1900
DGENRE=
TTITLE0=Prologue
TTITLE1=Joya
TTITLE2=Exit Music (for a dick)
EXTD=
EXTT0=
EXTT1=
EXTT2=
PLAYORDER=
